# xmcd
#
# Track frame offsets:
#	150
#	13343
#	28001
#	41851
#	54193
#	71086
#	84351
#	91634
#	109439
#	123525
#	139002
#	154293
#	168084
#	182885
#	195531
#	209046
#	223144
#	239438
#	252946
#	266322
#
# Disc length: 3712 seconds
#
# Revision: 1
# Processed by: cddbd v1.5.2PL0 Copyright (c) Steve Scherf et al.
# Submitted via: audiograbber 1.83.01
#
DISCID=250e7e14
DTITLE=Mix - The Great Voices of the 20th Century
DYEAR=1900
DGENRE=
TTITLE0=Percy Sledge - When  a man loves women
TTITLE1=Ben King - Stand by me
TTITLE2=Aaron Neville - Tell it like it is
TTITLE3=The Platters - My prayer
TTITLE4=The Drifters - Unchained melody
TTITLE5=Brook Benton - Baby you've got what it takes
TTITLE6=Minnie Ripperton - Wherever we are
TTITLE7=Al Jarreau - Lean on me
TTITLE8=Jose Feliciano - Light my fire
TTITLE9=The association - Cherish
TTITLE10=Dinah Washington - Cold cold heart
TTITLE11=Frank Sinatra - In the wee small hours of the morning
TTITLE12=The platters - The wonder of you
TTITLE13=Nat king cole - Unforgettable
TTITLE14=Eartha kitt - C'Est Si Bon
TTITLE15=Peggy lee - Fever
TTITLE16=Delta reese - Stomy weather
TTITLE17=RJ thomas - Raindrops keep falling on my head
TTITLE18=Billy eckstine - I am in the mood for love
TTITLE19=Mel  torme - Night and day
EXTD=
EXTT0=
EXTT1=
EXTT2=
EXTT3=
EXTT4=
EXTT5=
EXTT6=
EXTT7=
EXTT8=
EXTT9=
EXTT10=
EXTT11=
EXTT12=
EXTT13=
EXTT14=
EXTT15=
EXTT16=
EXTT17=
EXTT18=
EXTT19=
PLAYORDER=
